<svg width="127" height="127" viewBox="0 0 127 127" fill="none" xmlns="http://www.w3.org/2000/svg">
<path d="M0 63.14C0 28.27 28.27 0 63.14 0C98.01 0 126.28 28.27 126.28 63.14C126.28 98.01 98.01 126.28 63.14 126.28C28.27 126.29 0 98.02 0 63.14Z" fill="#323FB2"/>
<path d="M80.7887 88.7967C80.5487 88.5467 80.3787 88.2567 80.2587 87.9267ZM81.1887 86.2867C81.1887 89.1367 80.6187 91.6767 79.4887 93.9167C78.3587 96.1467 76.7187 97.9067 74.5787 99.1767C72.4387 100.457 69.8787 101.087 66.9087 101.087C62.9487 101.087 59.6587 100.097 57.0387 98.1367C54.4187 96.1667 52.9387 93.4967 52.5787 90.1167H58.5687C59.0287 91.7267 60.0087 93.0367 61.5087 94.0267C63.0087 95.0167 64.8087 95.5167 66.8887 95.5167C69.3287 95.5167 71.2987 94.7267 72.8087 93.1567C74.3087 91.5767 75.0687 89.2867 75.0687 86.2867V52.7667C74.0387 54.2267 72.6587 55.4567 70.9087 56.4567C69.1587 57.4467 67.1687 57.9467 64.9387 57.9467C62.3887 57.9467 60.0687 57.2667 57.9587 55.8867C55.8587 54.5167 54.1887 52.6067 52.9687 50.1467C51.7487 47.6867 51.1387 44.9067 51.1387 41.7867C51.1387 38.6767 51.7487 35.9167 52.9687 33.5067C55.4387 28.6467 60.5887 25.3567 66.0387 25.0267C70.8187 24.7367 74.8787 26.8167 77.7287 30.7067C80.7687 34.8667 80.8887 40.1967 81.0787 45.1367M73.8387 36.3267C73.0087 34.7467 71.9187 33.5467 70.5787 32.7267C69.2287 31.9067 67.7887 31.4867 66.2287 31.4867C64.6687 31.4867 63.2187 31.8867 61.8787 32.6967C60.5387 33.5067 59.4487 34.6867 58.6187 36.2467C57.7887 37.8067 57.3687 39.6467 57.3687 41.7967C57.3687 43.9367 57.7887 45.8167 58.6187 47.4267C59.4487 49.0367 60.5487 50.2667 61.9087 51.1167C63.2687 51.9667 64.7087 52.3867 66.2287 52.3867C67.7887 52.3867 69.2387 51.9767 70.5787 51.1467C71.9187 50.3267 73.0087 49.1167 73.8387 47.5167C74.6687 45.9267 75.0887 44.0567 75.0887 41.9167C75.0887 39.7567 74.6687 37.9067 73.8387 36.3267Z" fill="white"/>
<path d="M55.3877 63.5179C60.4643 59.3934 67.714 62.9359 68.5918 68.7572L68.6289 69.0365L68.6299 69.0394C69.1289 73.4487 66.5306 78.3613 62.1943 80.1166C60.8685 80.6536 59.5125 81.0469 58.1494 81.3363C58.1478 81.3973 58.1486 81.4582 58.1465 81.5189V81.5209C58.0475 84.3703 57.9196 86.8048 58.3613 89.0228L58.457 89.4632L58.4629 89.4867C58.5041 89.6665 58.5374 89.8381 58.5635 89.9779C58.5952 90.1479 58.6076 90.221 58.6328 90.3529C58.6761 90.5796 58.7031 90.6841 58.7217 90.7396C58.7373 90.7862 58.7207 90.7158 58.6357 90.6019C58.5379 90.4709 58.4024 90.3538 58.2588 90.2787L55.4785 95.5951C54.0196 94.8322 53.3517 93.5995 53.0322 92.6459C52.8821 92.1978 52.7956 91.7738 52.7393 91.4789C52.6691 91.1113 52.6533 90.9969 52.6143 90.8265C51.9064 87.8271 52.025 84.657 52.123 82.0658C50.0222 82.1732 47.9895 82.1696 46.1172 82.2064L46 76.2074C48.0848 76.1664 50.0415 76.1565 51.8965 76.0638C51.8889 75.9553 51.8804 75.8455 51.873 75.7347C51.7382 73.7125 51.6571 71.3823 52.1436 69.0853C52.5557 67.1234 53.5509 65.0093 55.3877 63.5179ZM61.2744 67.9554C60.5068 67.6186 59.7507 67.7039 59.1709 68.1752C58.6696 68.5822 58.2233 69.3254 58.0146 70.3216L58.0137 70.3285C57.7149 71.7393 57.7288 73.336 57.8535 75.2465C58.5621 75.0589 59.2582 74.8332 59.9424 74.556C61.5847 73.8914 62.8871 71.6669 62.668 69.7172C62.5848 68.9899 62.0731 68.3059 61.2744 67.9554Z" fill="white"/>
</svg>
